<?xml version="1.0" standalone="no"?>
<!DOCTYPE svg PUBLIC "-//W3C//DTD SVG 20010904//EN"
 "http://www.w3.org/TR/2001/REC-SVG-20010904/DTD/svg10.dtd">
<svg version="1.0" xmlns="http://www.w3.org/2000/svg"
 width="800.000000pt" height="800.000000pt" viewBox="0 0 800.000000 800.000000"
 preserveAspectRatio="xMidYMid meet">
<metadata>
Created by potrace 1.14, written by Peter Selinger 2001-2017
</metadata>
<g transform="translate(0.000000,800.000000) scale(0.100000,-0.100000)"
fill="#000000" stroke="none">
<path d="M2409 3601 c0 -993 -2 -1831 -4 -1861 -11 -200 -38 -374 -90 -575
-71 -271 -95 -369 -101 -409 -3 -23 -9 -61 -14 -86 -5 -25 -7 -85 -5 -135 6
-188 93 -339 235 -406 65 -32 201 -31 285 1 83 32 180 131 214 218 50 130 38
241 -68 613 -60 211 -88 320 -97 379 -1 8 -5 33 -8 55 -13 82 -15 102 -22 175
-7 73 -12 400 -6 400 1 0 35 -25 75 -55 92 -70 260 -157 307 -158 3 0 25 -7
50 -15 56 -17 248 -24 315 -11 28 5 59 11 70 13 45 9 155 50 235 89 210 101
460 295 712 552 67 69 88 85 89 70 18 -343 169 -585 429 -688 204 -80 481 -56
653 57 94 62 160 136 220 246 36 66 93 225 103 288 3 19 8 44 10 56 7 29 11
61 19 131 l7 61 -65 -1 c-36 0 -68 -2 -71 -5 -3 -3 -12 -41 -21 -85 -50 -240
-147 -394 -264 -420 -81 -18 -165 -2 -232 42 -62 41 -111 156 -125 293 -4 36
-8 74 -9 85 -1 11 -3 666 -4 1456 l-1 1436 -325 0 -325 -1 0 -1368 c0 -752 -3
-1368 -8 -1368 -4 0 -18 -10 -32 -23 -102 -93 -316 -244 -449 -316 -100 -54
-232 -104 -317 -119 -126 -22 -306 11 -415 75 -179 107 -264 257 -295 523 -4
36 -8 632 -10 1325 -1 693 -3 1263 -3 1266 -1 3 -145 6 -321 6 l-320 0 -1
-1806z"/>
</g>
</svg>
